<?xml version="1.0" standalone="no"?>
<!DOCTYPE svg PUBLIC "-//W3C//DTD SVG 20010904//EN"
 "http://www.w3.org/TR/2001/REC-SVG-20010904/DTD/svg10.dtd">
<svg version="1.0" xmlns="http://www.w3.org/2000/svg"
 width="512.000000pt" height="512.000000pt" viewBox="0 0 512.000000 512.000000"
 preserveAspectRatio="xMidYMid meet">
<metadata>
Created by potrace 1.14, written by Peter Selinger 2001-2017
</metadata>
<g transform="translate(0.000000,512.000000) scale(0.100000,-0.100000)"
fill="#000000" stroke="none">
<path d="M1287 3580 c-14 -11 -29 -20 -34 -20 -16 0 -73 -65 -73 -83 0 -9 -9
-31 -20 -49 -16 -26 -20 -51 -20 -119 0 -65 -4 -88 -14 -92 -21 -8 -46 -66
-46 -108 0 -21 -4 -41 -10 -44 -5 -3 -10 -16 -10 -29 0 -13 -9 -31 -20 -41
-11 -10 -20 -26 -20 -36 0 -9 -13 -43 -30 -74 -16 -31 -30 -64 -30 -73 0 -8
-8 -24 -17 -34 -17 -19 -56 -120 -75 -193 -5 -22 -14 -56 -20 -75 -12 -44 -4
-588 10 -685 5 -38 22 -109 36 -158 16 -55 26 -111 26 -152 0 -72 24 -125 91
-205 63 -74 181 -181 269 -245 22 -16 56 -42 73 -57 18 -14 75 -42 127 -62 52
-20 116 -47 143 -61 26 -14 56 -25 68 -25 12 0 129 -27 261 -60 l239 -60 287
0 c253 0 296 3 362 20 41 11 98 20 127 20 28 0 71 8 95 19 24 10 64 22 88 25
69 11 358 92 430 122 162 65 263 126 340 204 41 42 93 98 114 124 50 62 112
181 131 254 8 32 26 91 40 132 27 77 42 153 54 275 3 39 13 81 21 95 32 58 51
210 56 460 3 115 1 203 -5 215 -5 11 -12 31 -14 45 -3 14 -17 56 -31 93 -14
37 -26 79 -26 93 0 21 -15 56 -49 114 -5 8 -14 26 -20 40 -26 56 -44 82 -59
87 -44 16 -52 33 -52 119 0 46 -4 86 -10 89 -5 3 -10 15 -10 26 0 43 -41 95
-96 119 -22 11 -47 26 -54 35 -10 12 -42 15 -188 15 l-175 0 -49 -42 c-87 -76
-185 -173 -190 -188 -4 -11 -8 -12 -19 -4 -13 10 -60 25 -139 44 -19 5 -46 12
-60 16 -74 20 -204 27 -575 30 -380 4 -417 3 -505 -15 -52 -11 -117 -21 -145
-23 -43 -2 -51 1 -61 21 -7 12 -28 40 -48 60 -20 20 -36 41 -36 47 0 12 -34
43 -67 62 -16 8 -73 12 -182 12 -143 0 -161 -2 -184 -20z"/>
</g>
</svg>
